<svg xmlns="http://www.w3.org/2000/svg" version="1.1" xmlns:xlink="http://www.w3.org/1999/xlink" xmlns:svgjs="http://svgjs.com/svgjs" width="320" height="320"><svg width="320" height="320" viewBox="0 0 84.666664 84.666664" version="1.1" id="SvgjsSvg1004" inkscape:version="1.1.1 (3bf5ae0d25, 2021-09-20)" sodipodi:docname="favicon.svg" xmlns:inkscape="http://www.inkscape.org/namespaces/inkscape" xmlns:sodipodi="http://sodipodi.sourceforge.net/DTD/sodipodi-0.dtd" xmlns="http://www.w3.org/2000/svg" xmlns:svg="http://www.w3.org/2000/svg">
  <sodipodi:namedview id="SvgjsSodipodi:namedview1003" pagecolor="#ffffff" bordercolor="#666666" borderopacity="1.0" inkscape:pageshadow="2" inkscape:pageopacity="0.0" inkscape:pagecheckerboard="true" inkscape:document-units="mm" showgrid="false" units="px" inkscape:zoom="0.74742565" inkscape:cx="373.28128" inkscape:cy="183.29582" inkscape:window-width="1920" inkscape:window-height="1011" inkscape:window-x="0" inkscape:window-y="32" inkscape:window-maximized="1" inkscape:current-layer="layer1"></sodipodi:namedview>
  <defs id="SvgjsDefs1002"></defs>
  <g inkscape:label="Layer 1" inkscape:groupmode="layer" id="SvgjsG1001">
    <path d="m 64.36604,36.714679 -1.76767,11.363572 h 9.090858 l 1.388884,1.515143 -1.010093,12.247412 H 60.325656 l -2.272715,14.64638 H 44.037869 L 42.901512,74.972043 45.047963,61.840806 H 33.431869 l -2.272715,14.64638 H 17.144077 L 16.00772,74.972043 18.154171,61.840806 H 9.1895769 L 7.8006977,60.325658 8.8107912,48.078251 H 20.300627 l 1.767665,-11.363572 h -9.090858 l -1.388879,-1.515143 1.010093,-12.247407 h 11.6161 L 26.61372,8.1794803 h 13.636292 l 1.515143,1.6414065 -2.146451,13.1312422 h 11.48983 L 53.507513,8.1794803 h 13.636286 l 1.515143,1.6414065 -2.146451,13.1312422 h 8.964599 l 1.388879,1.515143 -1.010093,12.247407 z m -15.403956,0 H 37.472248 l -1.767665,11.363572 h 11.489836 z" style="font-weight:900;font-size:440.972px;line-height:1.25;font-family:'Alegreya Sans';-inkscape-font-specification:'Alegreya Sans Heavy';text-align:center;letter-spacing:0px;word-spacing:0px;text-anchor:middle;fill:#ffd900;fill-opacity:1;stroke-width:0.650223" id="SvgjsPath1000"></path>
  </g>
</svg><style>@media (prefers-color-scheme: light) { :root { filter: none; } }
</style></svg>